# xmcd
#
# Track frame offsets: 
#        150
#        15930
#        28732
#        39942
#        52267
#        64177
#        76497
#        86570
#        100185
#        112422
#        123080
#        135277
#        146792
#        158732
#        170809
#        182440
#        192977
#        204342
#        216112
#        228162
#        241295
#        251632
#        261752
#        275452
#        287630
#        302247
#        312117
#        323880
#
# Disc length: 4459 seconds
#
# Revision: 0
# Processed by: cddbd v1.5.2PL0 Copyright (c) Steve Scherf et al.
# Submitted via: ExactAudioCopy v1.0b1
#
DISCID=8d11691c
DTITLE=Various Artist - Rural Blues - Volumes 1 and 2 (BGO)
DYEAR=1998
DGENRE=Blues
TTITLE0=Nathaniel Terry - Take It Easy (mono)
TTITLE1=Manny Nichols - Forgive Me (mono)
TTITLE2=Country Jim - Avenue Breakdown (mono)
TTITLE3=Lil' Son Jackson - Disgusted (mono)
TTITLE4=Thunder 'N' Lightnin' - West Coast Blues (mono)
TTITLE5=Lightnin' Hopkins - Howling Wolf Blues (mono)
TTITLE6=Snooks Eaglin - Nobody Knows (mono)
TTITLE7=Nathaniel Terry - I Don't Know Why (mono)
TTITLE8=Manny Nichols - Worried Life (mono)
TTITLE9=Country Jim - Phillipine Blues (mono)
TTITLE10=Lil' Son Jackson - Thrill Me Baby (mono)
TTITLE11=Thunder 'N' Lightnin' - Can't Do Like You Used To (mono)
TTITLE12=Lightnin' Hopkins - Can't Get That Woman Off My Mind (mono)
TTITLE13=Snooks Eaglin - By The Water (mono)
TTITLE14=Papa Lightfoot - When The Saints Go Marching In (mono)
TTITLE15=Snooks Eaglin - Travelin' Mood (mono)
TTITLE16=Boogie Bill Webb - I Ain't For It (mono)
TTITLE17=Clifton Chenier - Country Bred (Nobody Loves Me) (mono)
TTITLE18=Slim Harpo - A Man Is Crying (mono)
TTITLE19=J.D. Edwards - Cold In The Evening (mono)
TTITLE20=Boozoo Chavis - Paper In My Shoe (mono)
TTITLE21=Papa Lightfoot - Wine, Women, Whiskey (mono)
TTITLE22=Snooks Eaglin - See See Rider (mono)
TTITLE23=Boogie Bill Webb - Love Me Mama (mono)
TTITLE24=Clifton Chenier - Just A Lonely Boy (mono)
TTITLE25=Slim Harpo - Something Inside Me (mono)
TTITLE26=J.D. Edwards - Crying (mono)
TTITLE27=Boozoo Chavis - Boozoo Stomp (mono)
EXTD=
EXTT0=
EXTT1=
EXTT2=
EXTT3=
EXTT4=
EXTT5=
EXTT6=
EXTT7=
EXTT8=
EXTT9=
EXTT10=
EXTT11=
EXTT12=
EXTT13=
EXTT14=
EXTT15=
EXTT16=
EXTT17=
EXTT18=
EXTT19=
EXTT20=
EXTT21=
EXTT22=
EXTT23=
EXTT24=
EXTT25=
EXTT26=
EXTT27=
PLAYORDER=
